<svg viewBox="0 0 62 62" fill="none" xmlns="http://www.w3.org/2000/svg"><path fill-rule="evenodd" clip-rule="evenodd" d="M21.23 13.62c.77-.08 1.56-.12 2.35-.12 10.63 0 19.6 7.42 22.34 17.53a14.54 14.54 0 0 1 .4-.03h-.08 3.49a7.66 7.66 0 1 0-4.03-14.25c0-1.22-.18-2.4-.53-3.52a12.6 12.6 0 0 0-23.94.4Zm34.22 20.24a15.47 15.47 0 0 1 6.17 12.45c0 8.46-6.6 15.31-14.76 15.31h-23.28c-12.82 0-23.2-10.77-23.2-24.06 0-10.73 6.77-19.82 16.13-22.92a16.98 16.98 0 0 1 32.62-3.32h.46a12.03 12.03 0 0 1 5.86 22.54Zm-9.14 23.39h-22.73c-10.25 0-18.83-8.66-18.83-19.69 0-11.02 8.58-19.69 18.83-19.69 8.7 0 16.19 6.24 18.26 14.86h.01c.3 1.2.48 2.43.55 3.7a9.93 9.93 0 0 1 4.46-1.05c5.59 0 10.39 4.74 10.39 10.93 0 6.15-4.73 10.87-10.27 10.94h-.67Z" fill="#fff"/></svg>