<svg viewBox="0 0 18 24" fill="none" xmlns="http://www.w3.org/2000/svg"><path fill-rule="evenodd" clip-rule="evenodd" d="M16 16.36c0 2.82-2.81 5.64-7 5.64-4.19 0-7-2.82-7-5.64 0-2.92 1.9-6.56 4.13-9.73a48.24 48.24 0 0 1 2.82-3.6c.8 1 1.86 2.35 2.9 3.88a35.4 35.4 0 0 1 2.93 5.03c.8 1.72 1.22 3.24 1.22 4.42Zm-16 0c0-5.43 5.13-11.99 7.64-14.87.82-.94 1.36-1.49 1.36-1.49s.52.57 1.3 1.53c2.5 3.04 7.7 9.96 7.7 14.83 0 4.22-4.03 7.64-9 7.64s-9-3.42-9-7.64Zm4.5-3.36h2.15a6.7 6.7 0 0 0-.65 2.55c0 1.14 1.12 2.45 3 2.45v2c-2.76 0-5-2-5-4.45 0-.83.2-1.69.5-2.55Z" fill="#fff"/></svg>