<svg viewBox="0 0 14 26" fill="none" xmlns="http://www.w3.org/2000/svg"><path d="M8.15 16.88v-5.65c0-.32-.12-.62-.34-.84a1.15 1.15 0 0 0-1.65 0 1.2 1.2 0 0 0-.34.84v5.65a2.35 2.35 0 0 0-1.16 2.03c0 .63.24 1.23.68 1.67a2.31 2.31 0 0 0 3.29 0 2.38 2.38 0 0 0-.48-3.7Zm4.07-2.7v-8.86c0-1.41-.55-2.77-1.53-3.76a5.2 5.2 0 0 0-7.4 0 5.36 5.36 0 0 0-1.54 3.76v8.86a7.13 7.13 0 0 0 5.23 11.82 6.9 6.9 0 0 0 6.4-4.18 7.19 7.19 0 0 0-1.16-7.64Zm-2.33 8.36a4.62 4.62 0 0 1-6.58-.4 4.78 4.78 0 0 1 .4-6.7 1.18 1.18 0 0 0 .34-.83v-9.3c0-.78.3-1.53.85-2.08a2.89 2.89 0 0 1 4.12 0c.54.55.85 1.3.85 2.09v9.38a1.2 1.2 0 0 0 .35.84 4.73 4.73 0 0 1 .91 5.55c-.3.6-.72 1.12-1.24 1.54v-.1Z" fill="#DFA1A1"/></svg>