<svg viewBox="0 0 24 19" fill="none" xmlns="http://www.w3.org/2000/svg"><path fill-rule="evenodd" clip-rule="evenodd" d="M10 4v-.01h-5.66l5.43-1.96a1 1 0 0 1 .36-.03 1 1 0 0 1 .73.45 1 1 0 0 1 .1.85 1 1 0 0 1-.59.62.98.98 0 0 1-.37.07Zm-10-.57v2.56h9.98a3 3 0 0 0 2.2-.93 3 3 0 0 0 .8-2.44 3 3 0 0 0-1.38-2.16 2.99 2.99 0 0 0-1.24-.44 3 3 0 0 0-1.27.13h-.03l-9.06 3.28Zm0 8.57v2.05l13.2 4.7a3.5 3.5 0 1 0 1.32-6.75h-14.52Zm14.51 2h-8.7l8.17 2.9a1.5 1.5 0 1 0 .53-2.9Zm4.5-9.75-.98-1.74a4 4 0 1 1 1.96 7.48h-19.99v-2h20a2 2 0 1 0-.98-3.74Z" fill="#fff"/></svg>