<svg xmlns="http://www.w3.org/2000/svg"><style>:root svg:not(:target){display:none}</style><svg viewBox="0 0 62 62" fill="none" id="cloud"><path fill-rule="evenodd" clip-rule="evenodd" d="M21.23 13.62c.77-.08 1.56-.12 2.35-.12 10.63 0 19.6 7.42 22.34 17.53a14.54 14.54 0 0 1 .4-.03h-.08 3.49a7.66 7.66 0 1 0-4.03-14.25c0-1.22-.18-2.4-.53-3.52a12.6 12.6 0 0 0-23.94.4Zm34.22 20.24a15.47 15.47 0 0 1 6.17 12.45c0 8.46-6.6 15.31-14.76 15.31h-23.28c-12.82 0-23.2-10.77-23.2-24.06 0-10.73 6.77-19.82 16.13-22.92a16.98 16.98 0 0 1 32.62-3.32h.46a12.03 12.03 0 0 1 5.86 22.54Zm-9.14 23.39h-22.73c-10.25 0-18.83-8.66-18.83-19.69 0-11.02 8.58-19.69 18.83-19.69 8.7 0 16.19 6.24 18.26 14.86h.01c.3 1.2.48 2.43.55 3.7a9.93 9.93 0 0 1 4.46-1.05c5.59 0 10.39 4.74 10.39 10.93 0 6.15-4.73 10.87-10.27 10.94h-.67Z" fill="#fff"></path></svg><svg viewBox="0 0 18 24" fill="none" id="humadity"><path fill-rule="evenodd" clip-rule="evenodd" d="M16 16.36c0 2.82-2.81 5.64-7 5.64-4.19 0-7-2.82-7-5.64 0-2.92 1.9-6.56 4.13-9.73a48.24 48.24 0 0 1 2.82-3.6c.8 1 1.86 2.35 2.9 3.88a35.4 35.4 0 0 1 2.93 5.03c.8 1.72 1.22 3.24 1.22 4.42Zm-16 0c0-5.43 5.13-11.99 7.64-14.87.82-.94 1.36-1.49 1.36-1.49s.52.57 1.3 1.53c2.5 3.04 7.7 9.96 7.7 14.83 0 4.22-4.03 7.64-9 7.64s-9-3.42-9-7.64Zm4.5-3.36h2.15a6.7 6.7 0 0 0-.65 2.55c0 1.14 1.12 2.45 3 2.45v2c-2.76 0-5-2-5-4.45 0-.83.2-1.69.5-2.55Z" fill="#fff"></path></svg><svg viewBox="0 0 14 26" fill="none" id="max-temp"><path d="M8.15 16.88v-5.65c0-.32-.12-.62-.34-.84a1.15 1.15 0 0 0-1.65 0 1.2 1.2 0 0 0-.34.84v5.65a2.35 2.35 0 0 0-1.16 2.03c0 .63.24 1.23.68 1.67a2.31 2.31 0 0 0 3.29 0 2.38 2.38 0 0 0-.48-3.7Zm4.07-2.7v-8.86c0-1.41-.55-2.77-1.53-3.76a5.2 5.2 0 0 0-7.4 0 5.36 5.36 0 0 0-1.54 3.76v8.86a7.13 7.13 0 0 0 5.23 11.82 6.9 6.9 0 0 0 6.4-4.18 7.19 7.19 0 0 0-1.16-7.64Zm-2.33 8.36a4.62 4.62 0 0 1-6.58-.4 4.78 4.78 0 0 1 .4-6.7 1.18 1.18 0 0 0 .34-.83v-9.3c0-.78.3-1.53.85-2.08a2.89 2.89 0 0 1 4.12 0c.54.55.85 1.3.85 2.09v9.38a1.2 1.2 0 0 0 .35.84 4.73 4.73 0 0 1 .91 5.55c-.3.6-.72 1.12-1.24 1.54v-.1Z" fill="#DFA1A1"></path></svg><svg viewBox="0 0 14 26" fill="none" id="min-temp"><path d="M8.15 16.88v-5.65c0-.32-.12-.62-.34-.84a1.15 1.15 0 0 0-1.65 0 1.2 1.2 0 0 0-.34.84v5.65a2.35 2.35 0 0 0-1.16 2.03c0 .63.24 1.23.68 1.67a2.31 2.31 0 0 0 3.29 0 2.38 2.38 0 0 0-.48-3.7Zm4.07-2.7v-8.86c0-1.41-.55-2.77-1.53-3.76a5.2 5.2 0 0 0-7.4 0 5.36 5.36 0 0 0-1.54 3.76v8.86a7.13 7.13 0 0 0 5.23 11.82 6.9 6.9 0 0 0 6.4-4.18 7.19 7.19 0 0 0-1.16-7.64Zm-2.33 8.36a4.62 4.62 0 0 1-6.58-.4 4.78 4.78 0 0 1 .4-6.7 1.18 1.18 0 0 0 .34-.83v-9.3c0-.78.3-1.53.85-2.08a2.89 2.89 0 0 1 4.12 0c.54.55.85 1.3.85 2.09v9.38a1.2 1.2 0 0 0 .35.84 4.73 4.73 0 0 1 .91 5.55c-.3.6-.72 1.12-1.24 1.54v-.1Z" fill="#6D97CA"></path></svg><svg viewBox="0 0 24 19" fill="none" id="wind"><path fill-rule="evenodd" clip-rule="evenodd" d="M10 4v-.01h-5.66l5.43-1.96a1 1 0 0 1 .36-.03 1 1 0 0 1 .73.45 1 1 0 0 1 .1.85 1 1 0 0 1-.59.62.98.98 0 0 1-.37.07Zm-10-.57v2.56h9.98a3 3 0 0 0 2.2-.93 3 3 0 0 0 .8-2.44 3 3 0 0 0-1.38-2.16 2.99 2.99 0 0 0-1.24-.44 3 3 0 0 0-1.27.13h-.03l-9.06 3.28Zm0 8.57v2.05l13.2 4.7a3.5 3.5 0 1 0 1.32-6.75h-14.52Zm14.51 2h-8.7l8.17 2.9a1.5 1.5 0 1 0 .53-2.9Zm4.5-9.75-.98-1.74a4 4 0 1 1 1.96 7.48h-19.99v-2h20a2 2 0 1 0-.98-3.74Z" fill="#fff"></path></svg></svg>