<svg viewBox="0 0 90 47" fill="none" xmlns="http://www.w3.org/2000/svg"><path fill-rule="evenodd" clip-rule="evenodd" d="m71.83 1.68 6.3 1.68-4.92 16.47 9.26-2.99-4.85 14.26-4.85 14.26-6.22-1.91 2.83-8.3 2.82-8.3-8.72 2.81 8.35-27.98Z" fill="url(#a)"/><path fill-rule="evenodd" clip-rule="evenodd" d="m66.24 12.05-3.52 12.56-2.53-8.62-6.93 23.6h-8.17l-9.27-36.56h9.4l4.78 23.78 6.68-23.78h7.03l2.53 9.02Z" fill="#fff"/><path fill-rule="evenodd" clip-rule="evenodd" d="m36.65 15.72 4.37 17.24-1.69 6.69h-8.15l-6.9-23.64-6.9 23.64h-8.16l-9.22-36.62h9.36l4.77 23.82 6.65-23.82h7l6.67 23.8 2.2-11.11Z" fill="#CACACA"/><defs><linearGradient id="a" x1="65.939" y1="3.58" x2="78.793" y2="43.42" gradientUnits="userSpaceOnUse"><stop stop-color="#F5BD52"/><stop offset="1" stop-color="#F5DA79"/></linearGradient></defs></svg>